<svg xmlns="http://www.w3.org/2000/svg" xmlns:xlink="http://www.w3.org/1999/xlink" width="500" zoomAndPan="magnify" viewBox="0 0 375 225" height="300" preserveAspectRatio="xMidYMid meet" version="1.0"><defs><g/></defs><rect x="-37.5" width="450" fill="#ffffff" y="-22.5" height="270" fill-opacity="1"/><rect x="-37.5" width="450" fill="#ffffff" y="-22.5" height="270" fill-opacity="1"/><rect x="-37.5" width="450" fill="#ffffff" y="-22.5" height="270" fill-opacity="1"/><g fill="#ff5757" fill-opacity="1"><g transform="translate(15.551295, 130.875005)"><g><path d="M 22.398438 0.398438 C 27.078125 0.398438 31.519531 -0.878906 35.359375 -3.121094 C 39.15625 -5.359375 42.355469 -8.519531 44.636719 -12.359375 C 46.878906 -16.160156 48.15625 -20.558594 48.15625 -25.320312 C 48.15625 -30 46.878906 -34.4375 44.636719 -38.277344 C 42.355469 -42.078125 39.15625 -45.277344 35.359375 -47.515625 C 31.519531 -49.757812 27.078125 -51.035156 22.398438 -51.035156 L 8.160156 -51.035156 C 6.839844 -51.035156 6 -50.835938 5.519531 -50.515625 C 5.039062 -50.195312 4.878906 -49.71875 4.878906 -49.117188 C 4.878906 -48.636719 4.960938 -48.15625 5.078125 -47.636719 C 5.199219 -47.117188 5.28125 -46.558594 5.320312 -46.039062 L 5.320312 -3.800781 C 5.320312 -3.640625 5.359375 -3.480469 5.398438 -3.320312 C 5.839844 -1.199219 7.640625 0.398438 10 0.398438 Z M 38.71875 -25.320312 C 38.71875 -20.679688 36.878906 -16.597656 33.917969 -13.71875 C 30.957031 -10.800781 26.878906 -9 22.398438 -8.878906 L 14.71875 -8.878906 L 14.71875 -42.117188 L 22.398438 -42.117188 C 26.878906 -42.078125 30.957031 -40.277344 33.917969 -37.277344 C 36.878906 -34.277344 38.71875 -30.117188 38.71875 -25.320312 Z M 38.71875 -25.320312 "/></g></g></g><g fill="#ff5757" fill-opacity="1"><g transform="translate(66.146264, 130.875005)"><g><path d="M 2.441406 -19.359375 C 2.441406 -13.917969 4.679688 -8.960938 8.28125 -5.398438 C 11.878906 -1.839844 16.757812 0.398438 22.199219 0.398438 C 27.636719 0.398438 32.558594 -1.839844 36.15625 -5.398438 C 39.757812 -8.960938 41.957031 -13.917969 41.957031 -19.359375 C 41.957031 -24.796875 39.757812 -29.71875 36.15625 -33.277344 C 32.558594 -36.835938 27.636719 -39.078125 22.199219 -39.078125 C 16.757812 -39.078125 11.878906 -36.835938 8.28125 -33.277344 C 4.679688 -29.71875 2.441406 -24.796875 2.441406 -19.359375 Z M 11.960938 -19.359375 C 11.960938 -22.238281 13.078125 -24.917969 14.917969 -26.839844 C 16.757812 -28.757812 19.320312 -29.957031 22.199219 -29.957031 C 25.078125 -29.957031 27.636719 -28.757812 29.476562 -26.839844 C 31.316406 -24.917969 32.4375 -22.238281 32.4375 -19.359375 C 32.4375 -16.4375 31.316406 -13.757812 29.476562 -11.839844 C 27.636719 -9.917969 25.078125 -8.71875 22.199219 -8.71875 C 19.320312 -8.71875 16.757812 -9.917969 14.917969 -11.839844 C 13.078125 -13.757812 11.960938 -16.4375 11.960938 -19.359375 Z M 11.960938 -19.359375 "/></g></g></g><g fill="#ff5757" fill-opacity="1"><g transform="translate(110.541854, 130.875005)"><g><path d="M 58.238281 -33.277344 C 55.796875 -36.796875 51.917969 -39.039062 46.195312 -39.039062 C 42.71875 -39.039062 39.917969 -37.835938 37.757812 -36.277344 C 36.4375 -35.316406 35.359375 -34.199219 34.558594 -33.15625 C 34.476562 -33.277344 34.4375 -33.398438 34.359375 -33.476562 C 31.917969 -36.957031 28.078125 -39.039062 22.359375 -39.039062 C 18.878906 -39.039062 16.039062 -37.71875 13.878906 -36.078125 C 12.917969 -35.359375 12.078125 -34.558594 11.398438 -33.757812 L 11.199219 -34.4375 C 10.558594 -37.757812 9 -39.078125 7.039062 -39.078125 C 5.320312 -39.078125 4.480469 -38.238281 4.480469 -36.519531 L 4.480469 -4.320312 C 4.480469 -3 5 -1.800781 5.839844 -0.960938 C 6.679688 -0.121094 7.878906 0.398438 9.199219 0.398438 C 10.480469 0.398438 11.679688 -0.121094 12.519531 -0.960938 C 13.359375 -1.800781 13.917969 -3 13.917969 -4.320312 L 13.917969 -19.878906 C 13.917969 -22.636719 14.597656 -25.160156 15.878906 -26.957031 C 17.160156 -28.757812 19.039062 -29.878906 21.558594 -29.878906 C 24.160156 -29.878906 25.878906 -28.796875 26.957031 -27.039062 C 28.039062 -25.277344 28.398438 -22.796875 28.398438 -19.957031 L 28.398438 -4.320312 C 28.398438 -3.039062 28.917969 -1.839844 29.757812 -1 C 30.597656 -0.160156 31.796875 0.398438 33.117188 0.398438 C 34.4375 0.398438 35.636719 -0.199219 36.476562 -1.078125 C 37.316406 -1.960938 37.796875 -3.121094 37.796875 -4.28125 L 37.796875 -20.839844 C 37.917969 -23.199219 38.597656 -25.359375 39.71875 -26.957031 C 40.996094 -28.757812 42.917969 -29.878906 45.4375 -29.878906 C 48.035156 -29.878906 49.796875 -28.796875 50.835938 -27.039062 C 51.875 -25.277344 52.238281 -22.796875 52.238281 -19.957031 L 52.238281 -4.320312 C 52.238281 -3.039062 52.796875 -1.839844 53.636719 -1 C 54.476562 -0.160156 55.675781 0.398438 56.996094 0.398438 C 58.394531 0.398438 59.554688 -0.199219 60.355469 -1.078125 C 61.15625 -1.960938 61.636719 -3.121094 61.636719 -4.28125 L 61.636719 -19.359375 C 61.636719 -24.796875 60.636719 -29.71875 58.238281 -33.277344 Z M 58.238281 -33.277344 "/></g></g></g><g fill="#ff5757" fill-opacity="1"><g transform="translate(176.655285, 130.875005)"><g><path d="M 2.441406 -19.359375 C 2.441406 -13.917969 4.679688 -8.960938 8.28125 -5.398438 C 11.878906 -1.839844 16.757812 0.398438 22.199219 0.398438 C 27.636719 0.398438 32.558594 -1.839844 36.15625 -5.398438 C 39.757812 -8.960938 41.957031 -13.917969 41.957031 -19.359375 C 41.957031 -24.796875 39.757812 -29.71875 36.15625 -33.277344 C 32.558594 -36.835938 27.636719 -39.078125 22.199219 -39.078125 C 16.757812 -39.078125 11.878906 -36.835938 8.28125 -33.277344 C 4.679688 -29.71875 2.441406 -24.796875 2.441406 -19.359375 Z M 11.960938 -19.359375 C 11.960938 -22.238281 13.078125 -24.917969 14.917969 -26.839844 C 16.757812 -28.757812 19.320312 -29.957031 22.199219 -29.957031 C 25.078125 -29.957031 27.636719 -28.757812 29.476562 -26.839844 C 31.316406 -24.917969 32.4375 -22.238281 32.4375 -19.359375 C 32.4375 -16.4375 31.316406 -13.757812 29.476562 -11.839844 C 27.636719 -9.917969 25.078125 -8.71875 22.199219 -8.71875 C 19.320312 -8.71875 16.757812 -9.917969 14.917969 -11.839844 C 13.078125 -13.757812 11.960938 -16.4375 11.960938 -19.359375 Z M 11.960938 -19.359375 "/></g></g></g><g fill="#ff5757" fill-opacity="1"><g transform="translate(221.050874, 130.875005)"><g><path d="M 38.996094 -33.238281 C 35.636719 -36.796875 30.917969 -39.039062 25.476562 -39.039062 C 21.277344 -39.039062 17.398438 -37.4375 14.320312 -34.796875 L 14.320312 -46.917969 C 14.320312 -48.238281 13.757812 -49.4375 12.917969 -50.277344 C 12.078125 -51.117188 10.878906 -51.636719 9.597656 -51.636719 C 8.28125 -51.636719 7.078125 -51.117188 6.238281 -50.277344 C 5.398438 -49.4375 4.878906 -48.238281 4.878906 -46.917969 L 4.878906 -2.121094 C 4.878906 -0.398438 5.71875 0.441406 7.441406 0.441406 C 9.398438 0.441406 10.960938 -0.878906 11.597656 -4.199219 L 12.078125 -5.679688 C 12.160156 -5.558594 12.277344 -5.480469 12.359375 -5.359375 C 15.519531 -1.800781 20.039062 0.441406 25.476562 0.441406 C 30.917969 0.441406 35.636719 -1.800781 38.996094 -5.359375 C 42.355469 -8.917969 44.398438 -13.878906 44.398438 -19.320312 C 44.398438 -24.757812 42.355469 -29.679688 38.996094 -33.238281 Z M 31.917969 -11.800781 C 30.078125 -9.878906 27.519531 -8.679688 24.636719 -8.679688 C 21.757812 -8.679688 19.199219 -9.878906 17.320312 -11.800781 C 15.4375 -13.71875 14.320312 -16.398438 14.320312 -19.320312 C 14.320312 -22.199219 15.4375 -24.878906 17.320312 -26.796875 C 19.199219 -28.71875 21.757812 -29.917969 24.636719 -29.917969 C 27.519531 -29.917969 30.078125 -28.71875 31.917969 -26.796875 C 33.757812 -24.878906 34.878906 -22.199219 34.878906 -19.320312 C 34.878906 -16.398438 33.757812 -13.71875 31.917969 -11.800781 Z M 31.917969 -11.800781 "/></g></g></g><g fill="#ff5757" fill-opacity="1"><g transform="translate(267.88623, 130.875005)"><g><path d="M 4 -49.195312 C 4 -47.757812 4.558594 -46.476562 5.519531 -45.558594 C 6.441406 -44.636719 7.757812 -44.117188 9.199219 -44.117188 C 10.640625 -44.117188 11.917969 -44.636719 12.878906 -45.558594 C 13.839844 -46.476562 14.398438 -47.757812 14.398438 -49.195312 C 14.398438 -50.636719 13.839844 -51.917969 12.878906 -52.835938 C 11.917969 -53.757812 10.640625 -54.316406 9.199219 -54.316406 C 7.757812 -54.316406 6.441406 -53.757812 5.519531 -52.835938 C 4.558594 -51.917969 4 -50.636719 4 -49.195312 Z M 4.480469 -4.320312 C 4.480469 -3 5 -1.800781 5.839844 -0.960938 C 6.640625 -0.121094 7.839844 0.398438 9.160156 0.398438 C 10.4375 0.398438 11.640625 -0.121094 12.480469 -0.960938 C 13.320312 -1.800781 13.878906 -3 13.878906 -4.320312 L 13.878906 -34.4375 C 13.878906 -35.71875 13.320312 -36.917969 12.480469 -37.757812 C 11.640625 -38.597656 10.4375 -39.117188 9.160156 -39.117188 C 7.839844 -39.117188 6.640625 -38.597656 5.839844 -37.757812 C 5 -36.917969 4.480469 -35.71875 4.480469 -34.4375 Z M 4.480469 -4.320312 "/></g></g></g><g fill="#ff5757" fill-opacity="1"><g transform="translate(286.244407, 130.875005)"><g><path d="M 26.316406 -37.039062 C 25.476562 -37.835938 24.320312 -38.316406 23.039062 -38.316406 L 19.039062 -38.316406 L 19.039062 -46.597656 C 19.039062 -47.878906 18.480469 -49.078125 17.640625 -49.917969 C 16.800781 -50.757812 15.597656 -51.277344 14.320312 -51.277344 C 13 -51.277344 11.800781 -50.757812 11 -49.917969 C 10.160156 -49.078125 9.640625 -47.878906 9.640625 -46.597656 L 9.640625 -38.316406 L 5.839844 -38.316406 C 4.558594 -38.316406 3.398438 -37.835938 2.601562 -37.039062 C 1.761719 -36.199219 1.238281 -35.039062 1.238281 -33.71875 C 1.238281 -32.4375 1.761719 -31.316406 2.601562 -30.476562 C 3.398438 -29.636719 4.558594 -29.117188 5.839844 -29.117188 L 9.640625 -29.117188 L 9.640625 -4.320312 C 9.640625 -3 10.160156 -1.800781 11 -0.960938 C 11.800781 -0.121094 13 0.398438 14.320312 0.398438 C 15.597656 0.398438 16.800781 -0.121094 17.640625 -0.960938 C 18.480469 -1.800781 19.039062 -3 19.039062 -4.320312 L 19.039062 -29.117188 L 23.039062 -29.117188 C 24.320312 -29.117188 25.476562 -29.636719 26.316406 -30.476562 C 27.117188 -31.316406 27.636719 -32.4375 27.636719 -33.71875 C 27.636719 -35.039062 27.117188 -36.199219 26.316406 -37.039062 Z M 26.316406 -37.039062 "/></g></g></g><g fill="#ff5757" fill-opacity="1"><g transform="translate(315.001554, 130.875005)"><g><path d="M 22.199219 0.398438 C 25.277344 0.398438 28.796875 -0.320312 31.476562 -1.519531 C 34.15625 -2.71875 36.039062 -4.441406 36.039062 -6.519531 C 36.039062 -8.320312 34.878906 -9.558594 33.4375 -10.078125 C 31.996094 -10.597656 30.316406 -10.558594 29.199219 -9.917969 C 27.277344 -8.28125 24.796875 -7.359375 22.238281 -7.359375 C 19.558594 -7.359375 17.160156 -8.480469 15.359375 -10.160156 C 13.558594 -11.839844 12.320312 -14.117188 12.121094 -16.558594 L 37.398438 -16.558594 C 40.757812 -16.558594 41.996094 -17.238281 41.996094 -19.917969 C 41.996094 -25.398438 39.835938 -30.238281 36.316406 -33.636719 C 32.796875 -37.039062 27.957031 -39.078125 22.519531 -39.078125 C 17.078125 -39.078125 12.078125 -36.996094 8.398438 -33.519531 C 4.71875 -30 2.441406 -25.078125 2.441406 -19.320312 C 2.441406 -13.878906 4.679688 -8.917969 8.28125 -5.398438 C 11.878906 -1.839844 16.757812 0.398438 22.199219 0.398438 Z M 22.519531 -31.398438 C 25.078125 -31.398438 27.476562 -30.4375 29.277344 -28.839844 C 31.039062 -27.238281 32.277344 -25.039062 32.476562 -22.480469 L 12.039062 -22.480469 C 12.359375 -25.039062 13.679688 -27.238281 15.558594 -28.839844 C 17.4375 -30.4375 19.917969 -31.398438 22.519531 -31.398438 Z M 22.519531 -31.398438 "/></g></g></g></svg>