<svg xmlns="http://www.w3.org/2000/svg" xmlns:xlink="http://www.w3.org/1999/xlink" width="500" zoomAndPan="magnify" viewBox="0 0 375 374.999991" height="500" preserveAspectRatio="xMidYMid meet" version="1.0"><defs><g/></defs><rect x="-37.5" width="450" fill="#ffffff" y="-37.499999" height="449.999989" fill-opacity="1"/><rect x="-37.5" width="450" fill="#ffffff" y="-37.499999" height="449.999989" fill-opacity="1"/><rect x="-37.5" width="450" fill="#ffffff" y="-37.499999" height="449.999989" fill-opacity="1"/><g fill="#ff5757" fill-opacity="1"><g transform="translate(99.383786, 202.300007)"><g><path d="M 11.480469 0.203125 C 13.875 0.203125 16.152344 -0.449219 18.121094 -1.597656 C 20.066406 -2.746094 21.707031 -4.367188 22.875 -6.332031 C 24.023438 -8.28125 24.679688 -10.535156 24.679688 -12.976562 C 24.679688 -15.375 24.023438 -17.648438 22.875 -19.617188 C 21.707031 -21.5625 20.066406 -23.203125 18.121094 -24.351562 C 16.152344 -25.5 13.875 -26.15625 11.480469 -26.15625 L 4.179688 -26.15625 C 3.503906 -26.15625 3.074219 -26.050781 2.828125 -25.886719 C 2.582031 -25.722656 2.5 -25.476562 2.5 -25.171875 C 2.5 -24.925781 2.542969 -24.679688 2.601562 -24.414062 C 2.664062 -24.144531 2.707031 -23.859375 2.726562 -23.59375 L 2.726562 -1.945312 C 2.726562 -1.867188 2.746094 -1.785156 2.765625 -1.703125 C 2.992188 -0.613281 3.914062 0.203125 5.125 0.203125 Z M 19.839844 -12.976562 C 19.839844 -10.597656 18.898438 -8.507812 17.382812 -7.03125 C 15.863281 -5.535156 13.773438 -4.613281 11.480469 -4.550781 L 7.542969 -4.550781 L 7.542969 -21.582031 L 11.480469 -21.582031 C 13.773438 -21.5625 15.863281 -20.640625 17.382812 -19.105469 C 18.898438 -17.566406 19.839844 -15.433594 19.839844 -12.976562 Z M 19.839844 -12.976562 "/></g></g></g><g fill="#ff5757" fill-opacity="1"><g transform="translate(125.311233, 202.300007)"><g><path d="M 1.25 -9.921875 C 1.25 -7.132812 2.398438 -4.589844 4.242188 -2.765625 C 6.085938 -0.941406 8.589844 0.203125 11.375 0.203125 C 14.164062 0.203125 16.683594 -0.941406 18.53125 -2.765625 C 20.375 -4.589844 21.5 -7.132812 21.5 -9.921875 C 21.5 -12.707031 20.375 -15.230469 18.53125 -17.054688 C 16.683594 -18.878906 14.164062 -20.027344 11.375 -20.027344 C 8.589844 -20.027344 6.085938 -18.878906 4.242188 -17.054688 C 2.398438 -15.230469 1.25 -12.707031 1.25 -9.921875 Z M 6.128906 -9.921875 C 6.128906 -11.398438 6.703125 -12.769531 7.644531 -13.753906 C 8.589844 -14.738281 9.898438 -15.351562 11.375 -15.351562 C 12.851562 -15.351562 14.164062 -14.738281 15.105469 -13.753906 C 16.050781 -12.769531 16.625 -11.398438 16.625 -9.921875 C 16.625 -8.425781 16.050781 -7.050781 15.105469 -6.066406 C 14.164062 -5.082031 12.851562 -4.46875 11.375 -4.46875 C 9.898438 -4.46875 8.589844 -5.082031 7.644531 -6.066406 C 6.703125 -7.050781 6.128906 -8.425781 6.128906 -9.921875 Z M 6.128906 -9.921875 "/></g></g></g><g fill="#ff5757" fill-opacity="1"><g transform="translate(148.0618, 202.300007)"><g><path d="M 29.84375 -17.054688 C 28.59375 -18.859375 26.605469 -20.003906 23.675781 -20.003906 C 21.890625 -20.003906 20.457031 -19.390625 19.351562 -18.589844 C 18.671875 -18.097656 18.121094 -17.523438 17.710938 -16.992188 C 17.667969 -17.054688 17.648438 -17.117188 17.605469 -17.15625 C 16.355469 -18.941406 14.390625 -20.003906 11.457031 -20.003906 C 9.675781 -20.003906 8.21875 -19.328125 7.113281 -18.488281 C 6.621094 -18.121094 6.191406 -17.710938 5.839844 -17.300781 L 5.738281 -17.648438 C 5.410156 -19.351562 4.613281 -20.027344 3.609375 -20.027344 C 2.726562 -20.027344 2.296875 -19.59375 2.296875 -18.714844 L 2.296875 -2.214844 C 2.296875 -1.539062 2.5625 -0.921875 2.992188 -0.492188 C 3.421875 -0.0625 4.039062 0.203125 4.714844 0.203125 C 5.371094 0.203125 5.984375 -0.0625 6.414062 -0.492188 C 6.847656 -0.921875 7.132812 -1.539062 7.132812 -2.214844 L 7.132812 -10.1875 C 7.132812 -11.601562 7.480469 -12.894531 8.136719 -13.816406 C 8.792969 -14.738281 9.757812 -15.3125 11.046875 -15.3125 C 12.378906 -15.3125 13.261719 -14.757812 13.816406 -13.855469 C 14.367188 -12.953125 14.554688 -11.683594 14.554688 -10.226562 L 14.554688 -2.214844 C 14.554688 -1.558594 14.820312 -0.941406 15.25 -0.511719 C 15.679688 -0.0820312 16.296875 0.203125 16.972656 0.203125 C 17.648438 0.203125 18.261719 -0.101562 18.695312 -0.554688 C 19.125 -1.003906 19.371094 -1.597656 19.371094 -2.191406 L 19.371094 -10.679688 C 19.429688 -11.886719 19.78125 -12.996094 20.355469 -13.816406 C 21.011719 -14.738281 21.992188 -15.3125 23.285156 -15.3125 C 24.617188 -15.3125 25.519531 -14.757812 26.050781 -13.855469 C 26.585938 -12.953125 26.769531 -11.683594 26.769531 -10.226562 L 26.769531 -2.214844 C 26.769531 -1.558594 27.058594 -0.941406 27.488281 -0.511719 C 27.917969 -0.0820312 28.53125 0.203125 29.207031 0.203125 C 29.925781 0.203125 30.519531 -0.101562 30.929688 -0.554688 C 31.339844 -1.003906 31.585938 -1.597656 31.585938 -2.191406 L 31.585938 -9.921875 C 31.585938 -12.707031 31.074219 -15.230469 29.84375 -17.054688 Z M 29.84375 -17.054688 "/></g></g></g><g fill="#ff5757" fill-opacity="1"><g transform="translate(181.9417, 202.300007)"><g><path d="M 1.25 -9.921875 C 1.25 -7.132812 2.398438 -4.589844 4.242188 -2.765625 C 6.085938 -0.941406 8.589844 0.203125 11.375 0.203125 C 14.164062 0.203125 16.683594 -0.941406 18.53125 -2.765625 C 20.375 -4.589844 21.5 -7.132812 21.5 -9.921875 C 21.5 -12.707031 20.375 -15.230469 18.53125 -17.054688 C 16.683594 -18.878906 14.164062 -20.027344 11.375 -20.027344 C 8.589844 -20.027344 6.085938 -18.878906 4.242188 -17.054688 C 2.398438 -15.230469 1.25 -12.707031 1.25 -9.921875 Z M 6.128906 -9.921875 C 6.128906 -11.398438 6.703125 -12.769531 7.644531 -13.753906 C 8.589844 -14.738281 9.898438 -15.351562 11.375 -15.351562 C 12.851562 -15.351562 14.164062 -14.738281 15.105469 -13.753906 C 16.050781 -12.769531 16.625 -11.398438 16.625 -9.921875 C 16.625 -8.425781 16.050781 -7.050781 15.105469 -6.066406 C 14.164062 -5.082031 12.851562 -4.46875 11.375 -4.46875 C 9.898438 -4.46875 8.589844 -5.082031 7.644531 -6.066406 C 6.703125 -7.050781 6.128906 -8.425781 6.128906 -9.921875 Z M 6.128906 -9.921875 "/></g></g></g><g fill="#ff5757" fill-opacity="1"><g transform="translate(204.692266, 202.300007)"><g><path d="M 19.984375 -17.035156 C 18.261719 -18.859375 15.84375 -20.003906 13.058594 -20.003906 C 10.90625 -20.003906 8.917969 -19.1875 7.339844 -17.832031 L 7.339844 -24.042969 C 7.339844 -24.71875 7.050781 -25.335938 6.621094 -25.765625 C 6.191406 -26.195312 5.574219 -26.460938 4.917969 -26.460938 C 4.242188 -26.460938 3.628906 -26.195312 3.199219 -25.765625 C 2.765625 -25.335938 2.5 -24.71875 2.5 -24.042969 L 2.5 -1.085938 C 2.5 -0.203125 2.929688 0.226562 3.8125 0.226562 C 4.816406 0.226562 5.617188 -0.449219 5.945312 -2.152344 L 6.191406 -2.910156 C 6.230469 -2.847656 6.292969 -2.808594 6.332031 -2.746094 C 7.953125 -0.921875 10.269531 0.226562 13.058594 0.226562 C 15.84375 0.226562 18.261719 -0.921875 19.984375 -2.746094 C 21.707031 -4.570312 22.753906 -7.113281 22.753906 -9.898438 C 22.753906 -12.6875 21.707031 -15.210938 19.984375 -17.035156 Z M 16.355469 -6.046875 C 15.414062 -5.0625 14.101562 -4.449219 12.625 -4.449219 C 11.152344 -4.449219 9.839844 -5.0625 8.875 -6.046875 C 7.910156 -7.03125 7.339844 -8.402344 7.339844 -9.898438 C 7.339844 -11.375 7.910156 -12.75 8.875 -13.734375 C 9.839844 -14.71875 11.152344 -15.332031 12.625 -15.332031 C 14.101562 -15.332031 15.414062 -14.71875 16.355469 -13.734375 C 17.300781 -12.75 17.875 -11.375 17.875 -9.898438 C 17.875 -8.402344 17.300781 -7.03125 16.355469 -6.046875 Z M 16.355469 -6.046875 "/></g></g></g><g fill="#ff5757" fill-opacity="1"><g transform="translate(228.693089, 202.300007)"><g><path d="M 2.050781 -25.210938 C 2.050781 -24.472656 2.335938 -23.816406 2.828125 -23.347656 C 3.300781 -22.875 3.976562 -22.609375 4.714844 -22.609375 C 5.453125 -22.609375 6.109375 -22.875 6.601562 -23.347656 C 7.09375 -23.816406 7.378906 -24.472656 7.378906 -25.210938 C 7.378906 -25.949219 7.09375 -26.605469 6.601562 -27.078125 C 6.109375 -27.546875 5.453125 -27.835938 4.714844 -27.835938 C 3.976562 -27.835938 3.300781 -27.546875 2.828125 -27.078125 C 2.335938 -26.605469 2.050781 -25.949219 2.050781 -25.210938 Z M 2.296875 -2.214844 C 2.296875 -1.539062 2.5625 -0.921875 2.992188 -0.492188 C 3.402344 -0.0625 4.015625 0.203125 4.695312 0.203125 C 5.351562 0.203125 5.964844 -0.0625 6.394531 -0.492188 C 6.824219 -0.921875 7.113281 -1.539062 7.113281 -2.214844 L 7.113281 -17.648438 C 7.113281 -18.304688 6.824219 -18.917969 6.394531 -19.351562 C 5.964844 -19.78125 5.351562 -20.046875 4.695312 -20.046875 C 4.015625 -20.046875 3.402344 -19.78125 2.992188 -19.351562 C 2.5625 -18.917969 2.296875 -18.304688 2.296875 -17.648438 Z M 2.296875 -2.214844 "/></g></g></g><g fill="#ff5757" fill-opacity="1"><g transform="translate(238.100761, 202.300007)"><g><path d="M 13.488281 -18.980469 C 13.058594 -19.390625 12.460938 -19.636719 11.804688 -19.636719 L 9.757812 -19.636719 L 9.757812 -23.878906 C 9.757812 -24.535156 9.46875 -25.152344 9.039062 -25.582031 C 8.609375 -26.011719 7.992188 -26.277344 7.339844 -26.277344 C 6.660156 -26.277344 6.046875 -26.011719 5.636719 -25.582031 C 5.207031 -25.152344 4.941406 -24.535156 4.941406 -23.878906 L 4.941406 -19.636719 L 2.992188 -19.636719 C 2.335938 -19.636719 1.742188 -19.390625 1.332031 -18.980469 C 0.902344 -18.550781 0.636719 -17.957031 0.636719 -17.28125 C 0.636719 -16.625 0.902344 -16.050781 1.332031 -15.617188 C 1.742188 -15.1875 2.335938 -14.921875 2.992188 -14.921875 L 4.941406 -14.921875 L 4.941406 -2.214844 C 4.941406 -1.539062 5.207031 -0.921875 5.636719 -0.492188 C 6.046875 -0.0625 6.660156 0.203125 7.339844 0.203125 C 7.992188 0.203125 8.609375 -0.0625 9.039062 -0.492188 C 9.46875 -0.921875 9.757812 -1.539062 9.757812 -2.214844 L 9.757812 -14.921875 L 11.804688 -14.921875 C 12.460938 -14.921875 13.058594 -15.1875 13.488281 -15.617188 C 13.898438 -16.050781 14.164062 -16.625 14.164062 -17.28125 C 14.164062 -17.957031 13.898438 -18.550781 13.488281 -18.980469 Z M 13.488281 -18.980469 "/></g></g></g><g fill="#ff5757" fill-opacity="1"><g transform="translate(252.837397, 202.300007)"><g><path d="M 11.375 0.203125 C 12.953125 0.203125 14.757812 -0.164062 16.132812 -0.777344 C 17.503906 -1.394531 18.46875 -2.273438 18.46875 -3.339844 C 18.46875 -4.261719 17.875 -4.898438 17.136719 -5.164062 C 16.398438 -5.433594 15.535156 -5.410156 14.964844 -5.082031 C 13.980469 -4.242188 12.707031 -3.773438 11.398438 -3.773438 C 10.023438 -3.773438 8.792969 -4.34375 7.871094 -5.207031 C 6.949219 -6.066406 6.3125 -7.234375 6.210938 -8.484375 L 19.164062 -8.484375 C 20.886719 -8.484375 21.523438 -8.835938 21.523438 -10.207031 C 21.523438 -13.015625 20.414062 -15.496094 18.613281 -17.238281 C 16.808594 -18.980469 14.328125 -20.027344 11.539062 -20.027344 C 8.753906 -20.027344 6.191406 -18.960938 4.304688 -17.175781 C 2.417969 -15.375 1.25 -12.851562 1.25 -9.898438 C 1.25 -7.113281 2.398438 -4.570312 4.242188 -2.765625 C 6.085938 -0.941406 8.589844 0.203125 11.375 0.203125 Z M 11.539062 -16.089844 C 12.851562 -16.089844 14.082031 -15.597656 15.003906 -14.777344 C 15.90625 -13.957031 16.542969 -12.832031 16.644531 -11.519531 L 6.167969 -11.519531 C 6.332031 -12.832031 7.011719 -13.957031 7.972656 -14.777344 C 8.9375 -15.597656 10.207031 -16.089844 11.539062 -16.089844 Z M 11.539062 -16.089844 "/></g></g></g></svg>